<svg xml:space="preserve" viewBox="0 0 100 100" y="0" x="0" xmlns="http://www.w3.org/2000/svg" id="Layer_1" version="1.1" style="height:100%;width:100%;background:0 0;shape-rendering:auto" width="55" height="55"><g class="ldl-scale" style="transform-origin:50% 50%;transform:rotate(0deg) scale(1,1)"><g class="ldl-ani"><g class="ldl-layer"><path fill="#C00" d="M45 13.1c9.7-5.6 21.9-4.4 30.3 3l4.6 4-6-1.2c-7.7-1.5-15.9-.1-23.2 4.1-7.3 4.2-12.6 10.6-15.1 18l-2 5.8-1.2-6C30.3 29.9 35.3 18.7 45 13.1z" class="ldl-ani" style="transform-origin:50px 50px;transform:scale(.91);animation:1.14943s linear -.680077s infinite normal forwards running breath-deb00328-69d6-4233-8f5e-a7363d3e14c6"/></g><g class="ldl-layer"><path fill="#E69138" d="m33.3 60.6 5.8 2-4-4.6C29.9 52.1 27 44.2 27 35.9c0-8.4 2.9-16.2 8.1-22.1l4.1-4.6-5.8 2c-10.6 3.6-17.7 13.5-17.7 24.7-.1 11.2 7 21.1 17.6 24.7z" class="ldl-ani" style="transform-origin:50px 50px;transform:scale(.91);animation:1.14943s linear -.773946s infinite normal forwards running breath-deb00328-69d6-4233-8f5e-a7363d3e14c6"/></g><g class="ldl-layer"><path fill="#FFD966" d="M33.6 76.2c6.2 0 12.3-2.2 17.2-6.5l4.6-4-6 1.2c-7.7 1.6-15.9.1-23.2-4.1-7.3-4.2-12.6-10.6-15.1-18l-2-5.8L8 45c-2.2 11 2.9 22.1 12.6 27.7 4 2.4 8.5 3.5 13 3.5z" class="ldl-ani" style="transform-origin:50px 50px;transform:scale(.91);animation:1.14943s linear -.867816s infinite normal forwards running breath-deb00328-69d6-4233-8f5e-a7363d3e14c6"/></g><g class="ldl-layer"><path fill="#93C47D" d="m67.5 59.1-1.2-6-2 5.8c-2.5 7.4-7.9 13.8-15.1 18-7.2 4.3-15.4 5.7-23.1 4.1l-6-1.2 4.6 4c4.9 4.3 11 6.5 17.2 6.5 4.5 0 9-1.2 13.1-3.5 9.7-5.5 14.7-16.7 12.5-27.7z" class="ldl-ani" style="transform-origin:50px 50px;transform:scale(.91);animation:1.14943s linear -.961686s infinite normal forwards running breath-deb00328-69d6-4233-8f5e-a7363d3e14c6"/></g><g class="ldl-layer"><path fill="#3D85C6" d="m66.7 39.4-5.8-2L65 42c5.2 5.9 8.1 13.7 8.1 22.1 0 8.4-2.9 16.2-8.1 22.1l-4.1 4.6 5.8-2c10.6-3.6 17.7-13.5 17.7-24.7S77.3 43 66.7 39.4z" class="ldl-ani" style="transform-origin:50px 50px;transform:scale(.91);animation:1.14943s linear -1.05556s infinite normal forwards running breath-deb00328-69d6-4233-8f5e-a7363d3e14c6"/></g><g class="ldl-layer"><path fill="#674EA7" d="M79.4 27.3c-9.7-5.6-21.9-4.4-30.3 3l-4.6 4 6-1.2c7.7-1.6 15.9-.1 23.2 4.1 7.3 4.2 12.6 10.6 15.1 18l2 5.8 1.2-6c2.2-11-2.9-22.1-12.6-27.7z" class="ldl-ani" style="transform-origin:50px 50px;transform:scale(.91);animation:1.14943s linear -1.14943s infinite normal forwards running breath-deb00328-69d6-4233-8f5e-a7363d3e14c6"/></g></g></g><style id="breath-deb00328-69d6-4233-8f5e-a7363d3e14c6">@keyframes breath-deb00328-69d6-4233-8f5e-a7363d3e14c6{0%{animation-timing-function:cubic-bezier(.9647,.2413,-.0705,.7911);transform:scale(.9099999999999999)}51%{animation-timing-function:cubic-bezier(.9226,.2631,-.0308,.7628);transform:scale(1.02994)}to{transform:scale(.9099999999999999)}}</style></svg>