<svg xmlns="http://www.w3.org/2000/svg"><style>:root svg:not(:target){display:none}</style><svg aria-hidden="true" viewBox="0 0 448 512" fill="none" id="icon-branches"><path d="M448 127.1c0 53.9-43 96-96 96-25.9 0-49.4-9.3-66.6-26l-94.1 47c.5 3.9-.2 7-.2 11.9 0 4 .7 7.1.2 11.9l94.1 47c17.2-16.7 40.7-26.9 66.6-26.9 53 0 96 42.1 96 96 0 53-43 96-96 96-53.9 0-96-43-96-96 0-4.9.2-8 .7-11.9l-94.1-47C145.4 341.8 121.9 352 96 352c-53.02 0-96-43-96-96 0-53.9 42.98-96 96-96 25.9 0 49.4 10.2 66.6 26.9l94.1-47c-.5-4.8-.7-7.9-.7-11.9 0-53.02 42.1-96 96-96 53 0 96 42.98 96 96v-.9zm-352.9 160c18.6 0 32-13.4 32-32 0-16.8-13.4-32-32-32-16.77 0-32 15.2-32 32 0 18.6 15.23 32 32 32zM352 95.1c-17.7 0-32 15.2-32 32 0 18.6 14.3 32 32 32s32-13.4 32-32c0-16.8-14.3-32-32-32zm0 320.9c17.7 0 32-14.3 32-32s-14.3-32-32-32-32 14.3-32 32 14.3 32 32 32z" fill="currentColor"></path></svg><svg aria-hidden="true" viewBox="0 0 512 512" fill="none" id="icon-card"><path d="M448 32c35.3 0 64 28.65 64 64v320c0 35.3-28.7 64-64 64H64c-35.35 0-64-28.7-64-64V96c0-35.35 28.65-64 64-64h384zM96 96c-17.67 0-32 14.3-32 32s14.33 32 32 32h320c17.7 0 32-14.3 32-32s-14.3-32-32-32H96z" fill="currentColor"></path></svg><svg aria-hidden="true" viewBox="0 0 512 512" fill="none" id="icon-clock"><path d="M256 0c141.4 0 256 114.6 256 256S397.4 512 256 512c-54.3 0-104.8-17-146.3-45.9-14.5-11-18.06-30.1-7.9-44.6 10.1-14.5 30-18 44.5-7.9C177.4 435.3 215.2 448 256 448c106 0 192-86 192-192 0-106.9-86-192-192-192-53.9 0-101 21.46-135.8 56.2L151 151c15.1 15.1 4.4 41-16.9 41H24c-13.25 0-24-10.7-24-24V57.94c0-21.38 25.85-32.09 40.97-16.97l34.01 34.01C121.3 28.69 185.3 0 255.1 0h.9zm0 128c13.3 0 24 10.7 24 24v94.1l64.1 64.9c10.2 9.4 10.2 24.6 0 33.1-8.5 10.2-23.7 10.2-33.1 0l-72-72c-4.5-3.6-7-9.7-7-16.1V152c0-13.3 10.7-24 24-24z" fill="currentColor"></path></svg><svg aria-hidden="true" viewBox="0 0 384 512" fill="none" id="icon-ease"><path d="M240.5 224H352c13.3 0 25.3 8.3 29.1 20.7 5.5 12.5 2 26.6-8 35.4l-256 224c-11.3 9.8-27.83 10.6-39.91 1.8-12.09-8.8-16.49-24.8-10.6-38.5L143.5 288H31.1c-12.43 0-24.367-8.3-29.056-20.7a32.094 32.094 0 0 1 8.886-35.4L266.9 7.918c11.3-9.838 27.8-10.587 39.9-1.804 12.1 8.786 16.5 24.756 10.6 38.496L240.5 224z" fill="currentColor"></path></svg><svg aria-hidden="true" viewBox="0 0 512 512" fill="none" id="icon-shuffle"><path d="M424.1 287c-15.13-15.12-40.1-4.426-40.1 16.97V352h-48L153.6 108.8c-6-8-15.5-12.8-25.6-12.8H32c-17.69 0-32 14.3-32 32s14.31 32 32 32h80l182.4 243.2c6 8.1 15.5 12.8 25.6 12.8h63.97v47.94c0 21.39 25.86 32.12 40.99 17l79.1-79.98c9.387-9.387 9.387-24.59 0-33.97L424.1 287zM336 160h47.97v48.03c0 21.39 25.87 32.09 40.1 16.97l79.1-79.98c9.387-9.391 9.385-24.59-.001-33.97l-79.1-79.98c-15.13-15.12-40.99-4.391-40.99 17V96H320c-10.06 0-19.56 4.75-25.59 12.81L254 162.7l39.1 53.3 42.9-56zM112 352H32c-17.69 0-32 14.31-32 32s14.31 32 32 32h96c10.06 0 19.56-4.75 25.59-12.81l40.4-53.87L154 296l-42 56z" fill="currentColor"></path></svg><svg aria-hidden="true" viewBox="0 0 512 512" fill="none" id="icon-tooltip"><path d="M256 0C114.6 0 0 114.6 0 256s114.6 256 256 256 256-114.6 256-256S397.4 0 256 0zm-24 152c0-13.2 10.8-24 24-24s24 10.75 24 24v128c0 13.25-10.75 24-24 24s-24-10.7-24-24V152zm24 248c-17.36 0-31.44-14.08-31.44-31.44s14.07-31.44 31.44-31.44 31.44 14.08 31.44 31.44C287.4 385.9 273.4 400 256 400z" fill="currentColor"></path></svg><svg aria-hidden="true" viewBox="0 0 512 512" fill="none" id="icon-warning"><path d="M506.3 417 293 53c-16.33-28-57.54-28-73.98 0L5.82 417c-16.41 27.9 4.029 63 36.92 63h426.6c32.76 0 53.26-35 36.96-63zM232 168c0-13.25 10.75-24 24-24s24 10.8 24 24v128c0 13.25-10.75 24-23.1 24S232 309.3 232 296V168zm24 248c-17.36 0-31.44-14.08-31.44-31.44s14.07-31.44 31.44-31.44 31.44 14.08 31.44 31.44C287.4 401.9 273.4 416 256 416z" fill="currentColor"></path></svg></svg>